<svg viewBox="0 0 32 32" xmlns="http://www.w3.org/2000/svg">
  <!-- Instagram-inspired gradient background -->
  <defs>
    <linearGradient id="instagramGradient" x1="0%" y1="0%" x2="100%" y2="100%">
      <stop offset="0%" stop-color="#833AB4" /> <!-- Purple -->
      <stop offset="50%" stop-color="#FD1D1D" /> <!-- Red -->
      <stop offset="100%" stop-color="#FCAF45" /> <!-- Yellow/Orange -->
    </linearGradient>
  </defs>
  
  <!-- Rounded square background -->
  <rect x="0" y="0" width="32" height="32" rx="8" ry="8" fill="url(#instagramGradient)" />
  
  <!-- Simple music note -->
  <path d="M21,8 L21,19.5 C21,20.88 19.88,22 18.5,22 C17.12,22 16,20.88 16,19.5 C16,18.12 17.12,17 18.5,17 C18.86,17 19.19,17.07 19.5,17.21 L19.5,11 L13.5,12.5 L13.5,21 C13.5,22.38 12.38,23.5 11,23.5 C9.62,23.5 8.5,22.38 8.5,21 C8.5,19.62 9.62,18.5 11,18.5 C11.36,18.5 11.69,18.57 12,18.71 L12,10 C12,9.45 12.45,9 13,9 L21,8 Z" fill="white" />
</svg>