<svg width="16" height="18" viewBox="0 0 16 18" fill="none" xmlns="http://www.w3.org/2000/svg">
<path d="M15.5 1.48875V16.5112C15.4972 16.7772 15.4237 17.0376 15.2872 17.2658C15.1506 17.494 14.9558 17.6818 14.7227 17.8099C14.4896 17.938 14.2267 18.0019 13.9608 17.9949C13.695 17.988 13.4357 17.9105 13.2097 17.7703L2 10.7597V17.25C2 17.4489 1.92098 17.6397 1.78033 17.7803C1.63968 17.921 1.44891 18 1.25 18C1.05109 18 0.860322 17.921 0.71967 17.7803C0.579018 17.6397 0.5 17.4489 0.5 17.25V0.75C0.5 0.551088 0.579018 0.360322 0.71967 0.21967C0.860322 0.0790178 1.05109 0 1.25 0C1.44891 0 1.63968 0.0790178 1.78033 0.21967C1.92098 0.360322 2 0.551088 2 0.75V7.24031L13.2097 0.229688C13.4354 0.0879731 13.695 0.0091765 13.9614 0.00145626C14.2278 -0.00626398 14.4915 0.0573728 14.7251 0.185778C14.9586 0.314183 15.1536 0.502688 15.2899 0.731776C15.4261 0.960865 15.4987 1.22221 15.5 1.48875Z" fill="black" fill-opacity="0.9"/>
</svg>
