<svg width="21" height="18" viewBox="0 0 21 18" fill="none" xmlns="http://www.w3.org/2000/svg">
<path d="M20.2806 13.7194C20.3504 13.789 20.4057 13.8717 20.4434 13.9628C20.4812 14.0538 20.5006 14.1514 20.5006 14.25C20.5006 14.3486 20.4812 14.4462 20.4434 14.5372C20.4057 14.6283 20.3504 14.711 20.2806 14.7806L18.0306 17.0306C17.9257 17.1356 17.792 17.2072 17.6465 17.2361C17.5009 17.2651 17.35 17.2503 17.2129 17.1935C17.0758 17.1366 16.9586 17.0404 16.8762 16.917C16.7938 16.7935 16.7499 16.6484 16.75 16.5V15C15.6908 14.9851 14.6499 14.7217 13.7111 14.2309C12.7724 13.7401 11.962 13.0357 11.3453 12.1744L7.43406 6.69937C6.94789 6.01975 6.30677 5.46575 5.56382 5.08327C4.82088 4.70079 3.99749 4.50085 3.16188 4.5H1C0.801088 4.5 0.610322 4.42098 0.46967 4.28033C0.329018 4.13967 0.25 3.94891 0.25 3.75C0.25 3.55108 0.329018 3.36032 0.46967 3.21967C0.610322 3.07901 0.801088 3 1 3H3.16188C4.23615 3.00089 5.29474 3.25775 6.24996 3.7493C7.20518 4.24085 8.02952 4.95293 8.65469 5.82656L12.5659 11.3016C13.0434 11.9692 13.6704 12.5157 14.397 12.8975C15.1235 13.2792 15.9294 13.4856 16.75 13.5V12C16.7499 11.8516 16.7938 11.7065 16.8762 11.583C16.9586 11.4596 17.0758 11.3633 17.2129 11.3065C17.35 11.2497 17.5009 11.2349 17.6465 11.2638C17.792 11.2928 17.9257 11.3644 18.0306 11.4694L20.2806 13.7194ZM11.4062 7.03125C11.4864 7.0885 11.577 7.1294 11.673 7.15162C11.7689 7.17384 11.8683 7.17694 11.9655 7.16075C12.0626 7.14456 12.1557 7.10939 12.2392 7.05725C12.3228 7.00511 12.3953 6.93702 12.4525 6.85687L12.565 6.70031C13.0423 6.03224 13.6695 5.48525 14.3962 5.10316C15.1229 4.72106 15.9291 4.51449 16.75 4.5V6C16.7499 6.14842 16.7938 6.29354 16.8762 6.41698C16.9586 6.54043 17.0758 6.63665 17.2129 6.69346C17.35 6.75028 17.5009 6.76513 17.6465 6.73614C17.792 6.70716 17.9257 6.63563 18.0306 6.53062L20.2806 4.28062C20.3504 4.21097 20.4057 4.12825 20.4434 4.0372C20.4812 3.94615 20.5006 3.84856 20.5006 3.75C20.5006 3.65143 20.4812 3.55384 20.4434 3.46279C20.4057 3.37174 20.3504 3.28903 20.2806 3.21937L18.0306 0.969371C17.9257 0.864362 17.792 0.792836 17.6465 0.763849C17.5009 0.734861 17.35 0.749714 17.2129 0.806529C17.0758 0.863343 16.9586 0.959564 16.8762 1.08301C16.7938 1.20645 16.7499 1.35157 16.75 1.5V3C15.6908 3.01487 14.6499 3.27832 13.7111 3.76911C12.7724 4.2599 11.962 4.96432 11.3453 5.82562L11.2328 5.98218C11.1751 6.06237 11.1338 6.15317 11.1112 6.24937C11.0887 6.34557 11.0854 6.44528 11.1015 6.54276C11.1176 6.64024 11.1528 6.73358 11.2051 6.81741C11.2574 6.90124 11.3258 6.97391 11.4062 7.03125ZM8.59375 10.9687C8.5136 10.9115 8.42297 10.8706 8.32701 10.8484C8.23106 10.8262 8.13166 10.823 8.03451 10.8392C7.93736 10.8554 7.84434 10.8906 7.76078 10.9427C7.67722 10.9949 7.60475 11.063 7.5475 11.1431L7.435 11.2997C6.94883 11.9796 6.30761 12.5339 5.56448 12.9165C4.82136 13.2992 3.99773 13.4992 3.16188 13.5H1C0.801088 13.5 0.610322 13.579 0.46967 13.7197C0.329018 13.8603 0.25 14.0511 0.25 14.25C0.25 14.4489 0.329018 14.6397 0.46967 14.7803C0.610322 14.921 0.801088 15 1 15H3.16188C4.23615 14.9991 5.29474 14.7422 6.24996 14.2507C7.20518 13.7591 8.02952 13.0471 8.65469 12.1734L8.76719 12.0169C8.82478 11.9367 8.86598 11.846 8.88843 11.7499C8.91089 11.6538 8.91415 11.5542 8.89804 11.4568C8.88193 11.3594 8.84676 11.2662 8.79454 11.1824C8.74232 11.0987 8.67409 11.0261 8.59375 10.9687Z" fill="black" fill-opacity="0.9"/>
</svg>
