<svg width="16" height="18" viewBox="0 0 16 18" fill="none" xmlns="http://www.w3.org/2000/svg">
<path d="M15.5 0.75V17.25C15.5 17.4489 15.421 17.6397 15.2803 17.7803C15.1397 17.921 14.9489 18 14.75 18C14.5511 18 14.3603 17.921 14.2197 17.7803C14.079 17.6397 14 17.4489 14 17.25V10.7597L2.79031 17.7703C2.56456 17.912 2.30504 17.9908 2.0386 17.9985C1.77217 18.0063 1.50852 17.9426 1.27494 17.8142C1.04137 17.6858 0.846358 17.4973 0.710107 17.2682C0.573857 17.0391 0.501318 16.7778 0.5 16.5112V1.48875C0.501318 1.22221 0.573857 0.960865 0.710107 0.731776C0.846358 0.502688 1.04137 0.314183 1.27494 0.185778C1.50852 0.0573728 1.77217 -0.00626398 2.0386 0.00145626C2.30504 0.0091765 2.56456 0.0879731 2.79031 0.229688L14 7.24031V0.75C14 0.551088 14.079 0.360322 14.2197 0.21967C14.3603 0.0790178 14.5511 0 14.75 0C14.9489 0 15.1397 0.0790178 15.2803 0.21967C15.421 0.360322 15.5 0.551088 15.5 0.75Z" fill="black" fill-opacity="0.9"/>
</svg>
