<svg width="20" height="20" viewBox="0 0 20 20" fill="none" xmlns="http://www.w3.org/2000/svg">
<path d="M10 0.25C8.07164 0.25 6.18657 0.821828 4.58319 1.89317C2.97982 2.96451 1.73013 4.48726 0.992179 6.26884C0.254225 8.05042 0.061142 10.0108 0.437348 11.9021C0.813554 13.7934 1.74215 15.5307 3.10571 16.8943C4.46928 18.2579 6.20656 19.1865 8.09787 19.5627C9.98919 19.9389 11.9496 19.7458 13.7312 19.0078C15.5127 18.2699 17.0355 17.0202 18.1068 15.4168C19.1782 13.8134 19.75 11.9284 19.75 10C19.7473 7.41498 18.7192 4.93661 16.8913 3.10872C15.0634 1.28084 12.585 0.25273 10 0.25ZM15.6803 10.6141L11.9303 13.2391C11.8179 13.3178 11.6861 13.3642 11.5492 13.3732C11.4123 13.3822 11.2756 13.3535 11.1539 13.2901C11.0321 13.2268 10.9301 13.1313 10.8589 13.014C10.7877 12.8968 10.75 12.7622 10.75 12.625V10C10.75 10.1205 10.7209 10.2392 10.6653 10.3461C10.6096 10.453 10.529 10.5449 10.4303 10.6141L6.68032 13.2391C6.56794 13.3178 6.43613 13.3642 6.29923 13.3732C6.16232 13.3822 6.02557 13.3535 5.90386 13.2901C5.78214 13.2268 5.68013 13.1313 5.60892 13.014C5.53772 12.8968 5.50004 12.7622 5.5 12.625V7.375C5.50004 7.2378 5.53772 7.10324 5.60892 6.98596C5.68013 6.86869 5.78214 6.77319 5.90386 6.70987C6.02557 6.64654 6.16232 6.61782 6.29923 6.62683C6.43613 6.63583 6.56794 6.68222 6.68032 6.76094L10.4303 9.38594C10.529 9.45508 10.6096 9.54699 10.6653 9.65388C10.7209 9.76077 10.75 9.87949 10.75 10V7.375C10.75 7.2378 10.7877 7.10324 10.8589 6.98596C10.9301 6.86869 11.0321 6.77319 11.1539 6.70987C11.2756 6.64654 11.4123 6.61782 11.5492 6.62683C11.6861 6.63583 11.8179 6.68222 11.9303 6.76094L15.6803 9.38594C15.779 9.45511 15.8595 9.54703 15.9151 9.65392C15.9707 9.76081 15.9997 9.87952 15.9997 10C15.9997 10.1205 15.9707 10.2392 15.9151 10.3461C15.8595 10.453 15.779 10.5449 15.6803 10.6141Z" fill="black" fill-opacity="0.9"/>
</svg>
