<svg width="22" height="14" viewBox="0 0 22 14" fill="none" xmlns="http://www.w3.org/2000/svg">
<path d="M21.25 7C21.2504 7.24952 21.1876 7.49508 21.0674 7.71377C20.9472 7.93246 20.7736 8.11715 20.5628 8.25062L12.295 13.5156C12.07 13.6595 11.8105 13.7403 11.5437 13.7496C11.2768 13.7589 11.0123 13.6964 10.7778 13.5687C10.5434 13.4409 10.3475 13.2525 10.2107 13.0232C10.0738 12.7939 10.0011 12.532 10 12.265V8.76812L2.545 13.5156C2.32002 13.6595 2.06054 13.7403 1.79367 13.7496C1.5268 13.7589 1.26232 13.6964 1.02784 13.5687C0.793357 13.4409 0.59748 13.2525 0.460657 13.0232C0.323834 12.7939 0.251083 12.532 0.25 12.265V1.735C0.251083 1.46796 0.323834 1.20612 0.460657 0.976799C0.59748 0.74748 0.793357 0.559098 1.02784 0.431322C1.26232 0.303545 1.5268 0.241061 1.79367 0.250392C2.06054 0.259724 2.32002 0.340529 2.545 0.484371L10 5.23187V1.735C10.0011 1.46796 10.0738 1.20612 10.2107 0.976799C10.3475 0.74748 10.5434 0.559098 10.7778 0.431322C11.0123 0.303545 11.2768 0.241061 11.5437 0.250392C11.8105 0.259724 12.07 0.340529 12.295 0.484371L20.5628 5.74937C20.7736 5.88284 20.9472 6.06753 21.0674 6.28622C21.1876 6.50491 21.2504 6.75047 21.25 7Z" fill="black" fill-opacity="0.9"/>
</svg>
